<svg width="135" height="24" viewBox="0 0 135 24" fill="none" xmlns="http://www.w3.org/2000/svg">
<path d="M22 9.24L14.81 8.62L12 2L9.19 8.63L2 9.24L7.46 13.97L5.82 21L12 17.27L18.18 21L16.55 13.97L22 9.24ZM12 15.4L8.24 17.67L9.24 13.39L5.92 10.51L10.3 10.13L12 6.1L13.71 10.14L18.09 10.52L14.77 13.4L15.77 17.68L12 15.4Z" fill="#BDBDBD"/>
<path d="M49.75 9.24L42.56 8.62L39.75 2L36.94 8.63L29.75 9.24L35.21 13.97L33.57 21L39.75 17.27L45.93 21L44.3 13.97L49.75 9.24ZM39.75 15.4L35.99 17.67L36.99 13.39L33.67 10.51L38.05 10.13L39.75 6.1L41.46 10.14L45.84 10.52L42.52 13.4L43.52 17.68L39.75 15.4Z" fill="#BDBDBD"/>
<path d="M77.5 9.24L70.31 8.62L67.5 2L64.69 8.63L57.5 9.24L62.96 13.97L61.32 21L67.5 17.27L73.68 21L72.05 13.97L77.5 9.24ZM67.5 15.4L63.74 17.67L64.74 13.39L61.42 10.51L65.8 10.13L67.5 6.1L69.21 10.14L73.59 10.52L70.27 13.4L71.27 17.68L67.5 15.4Z" fill="#BDBDBD"/>
<path d="M105.25 9.24L98.06 8.62L95.25 2L92.44 8.63L85.25 9.24L90.71 13.97L89.07 21L95.25 17.27L101.43 21L99.8 13.97L105.25 9.24ZM95.25 15.4L91.49 17.67L92.49 13.39L89.17 10.51L93.55 10.13L95.25 6.1L96.96 10.14L101.34 10.52L98.02 13.4L99.02 17.68L95.25 15.4Z" fill="#BDBDBD"/>
<path d="M133 9.24L125.81 8.62L123 2L120.19 8.63L113 9.24L118.46 13.97L116.82 21L123 17.27L129.18 21L127.55 13.97L133 9.24ZM123 15.4L119.24 17.67L120.24 13.39L116.92 10.51L121.3 10.13L123 6.1L124.71 10.14L129.09 10.52L125.77 13.4L126.77 17.68L123 15.4Z" fill="#BDBDBD"/>
</svg>
