<svg width="32" height="32" viewBox="0 0 32 32" fill="none" xmlns="http://www.w3.org/2000/svg">
<rect width="32" height="32" rx="10" fill="#F2F2F2"/>
<path d="M23.14 16.94C23.18 16.64 23.2 16.33 23.2 16C23.2 15.68 23.18 15.36 23.13 15.06L25.16 13.48C25.34 13.34 25.39 13.07 25.28 12.87L23.36 9.54999C23.24 9.32999 22.99 9.25999 22.77 9.32999L20.38 10.29C19.88 9.90999 19.35 9.58999 18.76 9.34999L18.4 6.80999C18.36 6.56999 18.16 6.39999 17.92 6.39999H14.08C13.84 6.39999 13.65 6.56999 13.61 6.80999L13.25 9.34999C12.66 9.58999 12.12 9.91999 11.63 10.29L9.23999 9.32999C9.01999 9.24999 8.76999 9.32999 8.64999 9.54999L6.73999 12.87C6.61999 13.08 6.65999 13.34 6.85999 13.48L8.88999 15.06C8.83999 15.36 8.79999 15.69 8.79999 16C8.79999 16.31 8.81999 16.64 8.86999 16.94L6.83999 18.52C6.65999 18.66 6.60999 18.93 6.71999 19.13L8.63999 22.45C8.75999 22.67 9.00999 22.74 9.22999 22.67L11.62 21.71C12.12 22.09 12.65 22.41 13.24 22.65L13.6 25.19C13.65 25.43 13.84 25.6 14.08 25.6H17.92C18.16 25.6 18.36 25.43 18.39 25.19L18.75 22.65C19.34 22.41 19.88 22.09 20.37 21.71L22.76 22.67C22.98 22.75 23.23 22.67 23.35 22.45L25.27 19.13C25.39 18.91 25.34 18.66 25.15 18.52L23.14 16.94ZM16 19.6C14.02 19.6 12.4 17.98 12.4 16C12.4 14.02 14.02 12.4 16 12.4C17.98 12.4 19.6 14.02 19.6 16C19.6 17.98 17.98 19.6 16 19.6Z" fill="#24BABA"/>
</svg>
