<svg width="20" height="20" viewBox="0 0 20 20" fill="none" xmlns="http://www.w3.org/2000/svg">
<path d="M15.05 19.1583H16.4333C17.1333 19.1583 17.7083 18.625 17.7917 17.9417L19.1667 4.20834H15V0.833344H13.3583V4.20834H9.21668L9.46668 6.15834C10.8917 6.55001 12.225 7.25834 13.025 8.04168C14.225 9.22501 15.05 10.45 15.05 12.45V19.1583V19.1583ZM0.833344 18.325V17.5H13.3583V18.325C13.3583 18.7833 12.9833 19.1583 12.5167 19.1583H1.67501C1.20834 19.1583 0.833344 18.7833 0.833344 18.325V18.325ZM13.3583 12.4917C13.3583 5.82501 0.833344 5.82501 0.833344 12.4917H13.3583ZM0.85001 14.1667H13.35V15.8333H0.85001V14.1667Z" fill="#24BABA"/>
</svg>
